<?xml version="1.0" encoding="UTF-8" standalone="no"?>
<!-- Generator: Adobe Illustrator 16.0.0, SVG Export Plug-In . SVG Version: 6.00 Build 0)  -->

<svg
   xmlns:dc="http://purl.org/dc/elements/1.1/"
   xmlns:cc="http://creativecommons.org/ns#"
   xmlns:rdf="http://www.w3.org/1999/02/22-rdf-syntax-ns#"
   xmlns:svg="http://www.w3.org/2000/svg"
   xmlns="http://www.w3.org/2000/svg"
   xmlns:sodipodi="http://sodipodi.sourceforge.net/DTD/sodipodi-0.dtd"
   xmlns:inkscape="http://www.inkscape.org/namespaces/inkscape"
   version="1.1"
   id="Capa_1"
   x="0px"
   y="0px"
   width="512"
   height="279.03278"
   viewBox="0 0 79.536 43.345998"
   xml:space="preserve"
   sodipodi:docname="mountain.svg"
   inkscape:version="0.92.1 r15371"><metadata
   id="metadata195"><rdf:RDF><cc:Work
       rdf:about=""><dc:format>image/svg+xml</dc:format><dc:type
         rdf:resource="http://purl.org/dc/dcmitype/StillImage" /><dc:title></dc:title></cc:Work></rdf:RDF></metadata><defs
   id="defs193" /><sodipodi:namedview
   pagecolor="#ffffff"
   bordercolor="#666666"
   borderopacity="1"
   objecttolerance="10"
   gridtolerance="10"
   guidetolerance="10"
   inkscape:pageopacity="0"
   inkscape:pageshadow="2"
   inkscape:window-width="1366"
   inkscape:window-height="705"
   id="namedview191"
   showgrid="false"
   fit-margin-top="0"
   fit-margin-left="0"
   fit-margin-right="0"
   fit-margin-bottom="0"
   inkscape:zoom="1.0195312"
   inkscape:cx="256"
   inkscape:cy="139.5164"
   inkscape:window-x="-8"
   inkscape:window-y="-8"
   inkscape:window-maximized="1"
   inkscape:current-layer="Capa_1" />
<g
   id="g158"
   transform="translate(0,-18.095)">
	<path
   d="M 79.536,61.441 H 0 L 3.946,54.595 16.231,33.311 c 2.175,-3.76 5.722,-3.76 7.889,0 0,0 2.853,4.942 3.197,5.52 1.634,-2.825 10.341,-17.916 10.341,-17.916 2.18,-3.76 5.725,-3.76 7.894,0 l 17.301,29.968 c 0.891,-1.548 1.771,-3.064 2.443,-4.256 1.574,-2.713 4.127,-2.713 5.707,0 1.563,2.724 4.127,7.166 5.701,9.869 z"
   id="path156"
   inkscape:connector-curvature="0"
   style="fill:#91dc5a" />
</g>
<g
   id="g160"
   transform="translate(0,-18.095)">
</g>
<g
   id="g162"
   transform="translate(0,-18.095)">
</g>
<g
   id="g164"
   transform="translate(0,-18.095)">
</g>
<g
   id="g166"
   transform="translate(0,-18.095)">
</g>
<g
   id="g168"
   transform="translate(0,-18.095)">
</g>
<g
   id="g170"
   transform="translate(0,-18.095)">
</g>
<g
   id="g172"
   transform="translate(0,-18.095)">
</g>
<g
   id="g174"
   transform="translate(0,-18.095)">
</g>
<g
   id="g176"
   transform="translate(0,-18.095)">
</g>
<g
   id="g178"
   transform="translate(0,-18.095)">
</g>
<g
   id="g180"
   transform="translate(0,-18.095)">
</g>
<g
   id="g182"
   transform="translate(0,-18.095)">
</g>
<g
   id="g184"
   transform="translate(0,-18.095)">
</g>
<g
   id="g186"
   transform="translate(0,-18.095)">
</g>
<g
   id="g188"
   transform="translate(0,-18.095)">
</g>
</svg>